<svg id="safe"
    xmlns="http://www.w3.org/2000/svg" viewBox="0 0 32 32" style="display: block; height: 24px; width: 24px; fill: currentcolor;" aria-hidden="true" role="presentation" focusable="false">
    <path d="M25 2a5 5 0 0 1 5 4.78V25a5 5 0 0 1-4.78 5H7a5 5 0 0 1-5-4.78V7a5 5 0 0 1 4.78-5H7zm0 2H7a3 3 0 0 0-3 2.82V11h2V6h20v20H6v-5H4v4a3 3 0 0 0 2.82 3H25a3 3 0 0 0 3-2.82V7a3 3 0 0 0-2.82-3zm-1 4H8v16h16zm-8 3a5 5 0 1 1 0 10 5 5 0 0 1 0-10zm0 2a3 3 0 1 0 0 6 3 3 0 0 0 0-6zM6 13H4v6h2z"></path>
</svg>
<svg id="tv"
    xmlns="http://www.w3.org/2000/svg" viewBox="0 0 32 32" style="display: block; height: 24px; width: 24px; fill: currentcolor;" aria-hidden="true" role="presentation" focusable="false">
    <path d="M9 29v-2h2v-2H6a5 5 0 0 1-5-4.78V8a5 5 0 0 1 4.78-5H26a5 5 0 0 1 5 4.78V20a5 5 0 0 1-4.78 5H21v2h2v2zm10-4h-6v2h6zm7-20H6a3 3 0 0 0-3 2.82V20a3 3 0 0 0 2.82 3H26a3 3 0 0 0 3-2.82V8a3 3 0 0 0-2.82-3z"></path>
</svg>
<svg id="ac"
    xmlns="http://www.w3.org/2000/svg" viewBox="0 0 32 32" style="display: block; height: 24px; width: 24px; fill: currentcolor;" aria-hidden="true" role="presentation" focusable="false">
    <path d="M17 1v4.03l4.03-2.32 1 1.73L17 7.34v6.93l6-3.47V5h2v4.65l3.49-2.02 1 1.74L26 11.38l4.03 2.33-1 1.73-5.03-2.9L18 16l6 3.46 5.03-2.9 1 1.73L26 20.62l3.49 2.01-1 1.74L25 22.35V27h-2v-5.8l-6-3.47v6.93l5.03 2.9-1 1.73L17 26.97V31h-2v-4.03l-4.03 2.32-1-1.73 5.03-2.9v-6.93L9 21.2V27H7v-4.65l-3.49 2.02-1-1.74L6 20.62l-4.03-2.33 1-1.73L8 19.46 14 16l-6-3.46-5.03 2.9-1-1.73L6 11.38 2.51 9.37l1-1.74L7 9.65V5h2v5.8l6 3.47V7.34l-5.03-2.9 1-1.73L15 5.03V1z"></path>
</svg>
<svg id="gym"
    xmlns="http://www.w3.org/2000/svg" viewBox="0 0 32 32" style="display: block; height: 24px; width: 24px; fill: currentcolor;" aria-hidden="true" role="presentation" focusable="false">
    <path d="M10 5a2 2 0 0 1 2 1.85V15h8V7a2 2 0 0 1 1.85-2H24a2 2 0 0 1 2 1.85V9h2a2 2 0 0 1 2 1.85V15h2v2h-2v4a2 2 0 0 1-1.85 2H26v2a2 2 0 0 1-1.85 2H22a2 2 0 0 1-2-1.85V17h-8v8a2 2 0 0 1-1.85 2H8a2 2 0 0 1-2-1.85V23H4a2 2 0 0 1-2-1.85V17H0v-2h2v-4a2 2 0 0 1 1.85-2H6V7a2 2 0 0 1 1.85-2H8zm14 2h-2v18h2zM10 7H8v18h2zm18 4h-2v10h2zM6 11H4v10h2z"></path>
</svg>
